<svg width="25" height="24" viewBox="0 0 25 24" fill="none" xmlns="http://www.w3.org/2000/svg">
<path fill-rule="evenodd" clip-rule="evenodd" d="M22.5 12C22.5 17.5228 18.0228 22 12.5 22C6.97715 22 2.5 17.5228 2.5 12C2.5 6.47715 6.97715 2 12.5 2C18.0228 2 22.5 6.47715 22.5 12ZM12.5 4C16.5796 4 19.946 7.05369 20.4381 11H16.374C15.9299 9.27477 14.3638 8 12.5 8C10.6362 8 9.07006 9.27477 8.62602 11H4.56189C5.05399 7.05369 8.42038 4 12.5 4ZM4.56189 13C5.05399 16.9463 8.42038 20 12.5 20C16.5796 20 19.946 16.9463 20.4381 13H16.374C15.9299 14.7252 14.3638 16 12.5 16C10.6362 16 9.07006 14.7252 8.62602 13H4.56189ZM10.5 12C10.5 13.1046 11.3954 14 12.5 14C13.6046 14 14.5 13.1046 14.5 12C14.5 10.8954 13.6046 10 12.5 10C11.3954 10 10.5 10.8954 10.5 12Z" fill="#0E0940"/>
</svg>
