<svg width="25" height="24" viewBox="0 0 25 24" fill="none" xmlns="http://www.w3.org/2000/svg">
<path d="M11.05 19.7L12.5 21L13.95 19.7C15.6333 18.1834 17.025 16.875 18.125 15.775C19.225 14.675 20.1 13.6874 20.75 12.812C21.4 11.9374 21.8543 11.1334 22.113 10.4C22.371 9.66669 22.5 8.91669 22.5 8.15002C22.5 6.58336 21.975 5.27502 20.925 4.22502C19.875 3.17502 18.5667 2.65002 17 2.65002C16.1333 2.65002 15.3083 2.83336 14.525 3.20002C13.7417 3.56669 13.0667 4.08336 12.5 4.75002C11.9333 4.08336 11.2583 3.56669 10.475 3.20002C9.69167 2.83336 8.86667 2.65002 8 2.65002C6.43333 2.65002 5.125 3.17502 4.075 4.22502C3.025 5.27502 2.5 6.58336 2.5 8.15002C2.5 8.91669 2.62933 9.66669 2.888 10.4C3.146 11.1334 3.6 11.9374 4.25 12.812C4.9 13.6874 5.775 14.675 6.875 15.775C7.975 16.875 9.36667 18.1834 11.05 19.7Z" fill="#5631E8"/>
</svg>
