<svg width="25" height="24" viewBox="0 0 25 24" fill="none" xmlns="http://www.w3.org/2000/svg">
<path d="M12.5 21L11.05 19.7C9.36667 18.1834 7.975 16.875 6.875 15.775C5.775 14.675 4.9 13.6874 4.25 12.812C3.6 11.9374 3.146 11.1334 2.888 10.4C2.62933 9.66669 2.5 8.91669 2.5 8.15002C2.5 6.58336 3.025 5.27502 4.075 4.22502C5.125 3.17502 6.43333 2.65002 8 2.65002C8.86667 2.65002 9.69167 2.83336 10.475 3.20002C11.2583 3.56669 11.9333 4.08336 12.5 4.75002C13.0667 4.08336 13.7417 3.56669 14.525 3.20002C15.3083 2.83336 16.1333 2.65002 17 2.65002C18.5667 2.65002 19.875 3.17502 20.925 4.22502C21.975 5.27502 22.5 6.58336 22.5 8.15002C22.5 8.91669 22.371 9.66669 22.113 10.4C21.8543 11.1334 21.4 11.9374 20.75 12.812C20.1 13.6874 19.225 14.675 18.125 15.775C17.025 16.875 15.6333 18.1834 13.95 19.7L12.5 21ZM12.5 18.3C14.1 16.8667 15.4167 15.6374 16.45 14.612C17.4833 13.5874 18.3 12.696 18.9 11.938C19.5 11.1794 19.9167 10.504 20.15 9.91202C20.3833 9.32069 20.5 8.73336 20.5 8.15002C20.5 7.15002 20.1667 6.31669 19.5 5.65002C18.8333 4.98336 18 4.65002 17 4.65002C16.2167 4.65002 15.4917 4.87069 14.825 5.31202C14.1583 5.75402 13.7 6.31669 13.45 7.00002H11.55C11.3 6.31669 10.8417 5.75402 10.175 5.31202C9.50833 4.87069 8.78333 4.65002 8 4.65002C7 4.65002 6.16667 4.98336 5.5 5.65002C4.83333 6.31669 4.5 7.15002 4.5 8.15002C4.5 8.73336 4.61667 9.32069 4.85 9.91202C5.08333 10.504 5.5 11.1794 6.1 11.938C6.7 12.696 7.51667 13.5874 8.55 14.612C9.58333 15.6374 10.9 16.8667 12.5 18.3Z" fill="#0E0940"/>
</svg>
