<svg width="25" height="24" viewBox="0 0 25 24" fill="none" xmlns="http://www.w3.org/2000/svg">
<path d="M16.374 13H22.4506C21.9489 18.0533 17.6854 22 12.5 22C7.31465 22 3.0511 18.0533 2.54938 13H8.62602C9.07006 14.7252 10.6362 16 12.5 16C14.3638 16 15.9299 14.7252 16.374 13Z" fill="#5631E8"/>
<path d="M12.5 2C17.6854 2 21.9489 5.94668 22.4506 11H16.374C15.9299 9.27477 14.3638 8 12.5 8C10.6362 8 9.07006 9.27477 8.62602 11H2.54938C3.0511 5.94668 7.31465 2 12.5 2Z" fill="#5631E8"/>
<path d="M12.5 14C13.6046 14 14.5 13.1046 14.5 12C14.5 10.8954 13.6046 10 12.5 10C11.3954 10 10.5 10.8954 10.5 12C10.5 13.1046 11.3954 14 12.5 14Z" fill="#5631E8"/>
</svg>
